<svg width="20" height="21" viewBox="0 0 20 21" fill="none" xmlns="http://www.w3.org/2000/svg">
<g clip-path="url(#clip0)">
<path fill-rule="evenodd" clip-rule="evenodd" d="M5.45551 20.9999H14.1987C14.3238 20.9999 14.4456 20.9583 14.5466 20.881L18.2821 18.0225C18.3672 17.9574 18.434 17.8696 18.4756 17.7683L19.9527 14.1682C19.9843 14.0914 20.0005 14.0088 20.0005 13.9253V5.47216C20.0005 5.30412 19.9348 5.14338 19.8188 5.02722L16.6364 1.84097C16.5811 1.78555 16.516 1.74195 16.4447 1.71263L12.3833 0.0426362C12.3146 0.0144175 12.2416 -6.10352e-05 12.1678 -6.10352e-05H5.44781C5.29605 -6.10352e-05 5.15015 0.0612163 5.04051 0.170974L2.21707 2.99794C2.14504 3.07 2.09176 3.15999 2.06207 3.25953L0.0271463 10.0842C0.000544713 10.1735 -0.00625216 10.268 0.0072244 10.3605L0.754178 15.4772C0.770857 15.5915 0.818045 15.6987 0.890193 15.7863L5.00926 20.786C5.12117 20.9218 5.2841 20.9999 5.45551 20.9999ZM4.80052 14.0486C6.04657 15.3517 7.68333 16.0033 9.32009 16.0033C10.9568 16.0033 12.5936 15.3517 13.8397 14.0486C14.8277 13.0154 15.3718 11.6416 15.3718 10.1803C15.3718 8.71902 14.8277 7.34525 13.8397 6.31198C13.027 5.46206 11.9465 4.99403 10.7972 4.99403C9.64786 4.99403 8.56739 5.46206 7.75474 6.31198C7.08235 7.01515 6.71204 7.95006 6.71204 8.94453C6.71204 9.93899 7.08235 10.8739 7.75474 11.5771C8.91107 12.7864 10.7926 12.7864 11.949 11.5771C12.92 10.5616 12.92 8.9093 11.949 7.89383C11.5504 7.47703 11.0205 7.24747 10.4569 7.24747C9.89325 7.24747 9.36333 7.47703 8.96482 7.89383C8.73478 8.13439 8.73482 8.52441 8.96482 8.76492C9.19489 9.00552 9.56775 9.00544 9.79782 8.76492C9.97384 8.58076 10.2079 8.47937 10.4569 8.47937C10.7059 8.47937 10.94 8.5808 11.1161 8.76492C11.6277 9.30005 11.6277 10.1708 11.1161 10.706C10.419 11.435 9.28482 11.4349 8.58775 10.706C8.13786 10.2355 7.89009 9.60988 7.89009 8.94453C7.89009 8.27909 8.13786 7.65356 8.58775 7.18307C9.1779 6.56587 9.96259 6.22597 10.7972 6.22597C11.6319 6.22597 12.4165 6.56587 13.0067 7.18307C13.7723 7.98366 14.1939 9.04809 14.1939 10.1803C14.1939 11.3125 13.7723 12.377 13.0067 13.1775C10.974 15.3034 7.6663 15.3034 5.63349 13.1775C5.40349 12.937 5.03052 12.937 4.80052 13.1775C4.57048 13.4181 4.57048 13.8081 4.80052 14.0486Z" fill="#E2DAC9"/>
</g>
<defs>
<clipPath id="clip0">
<rect width="20" height="21" fill="white"/>
</clipPath>
</defs>
</svg>
