<svg width="42" height="43" viewBox="0 0 42 43" fill="none" xmlns="http://www.w3.org/2000/svg">
<g clip-path="url(#clip0)">
<path d="M34.3798 12.4572L26.5102 20.3268C26.5373 20.4624 26.5616 20.5996 26.5798 20.7398C26.7925 22.3833 26.3186 23.9026 25.4385 24.7973C24.7972 24.4162 24.24 23.7838 23.8476 22.9895L22.7654 24.0716C23.5598 24.464 24.1922 25.0212 24.5733 25.6625C23.6786 26.5426 22.1593 27.0165 20.5158 26.8038C20.3756 26.7857 20.2385 26.7614 20.1029 26.7343L12.2373 34.5999C18.5088 38.9658 27.0726 38.254 32.5532 32.7733C38.034 27.2927 38.7459 18.7288 34.3798 12.4572ZM24.2542 30.5422C22.6107 30.3295 21.2621 29.4844 20.6209 28.4055C21.5157 27.5255 23.0349 27.0516 24.6784 27.2642C26.3219 27.4768 27.6704 28.322 28.3117 29.4009C27.417 30.2811 25.8977 30.7549 24.2542 30.5422ZM27.0403 24.9024C26.8276 23.259 27.3014 21.7396 28.1815 20.8449C29.2603 21.4862 30.1054 22.8347 30.3182 24.4783C30.5309 26.1218 30.057 27.641 29.1769 28.5358C28.0981 27.8945 27.253 26.5459 27.0403 24.9024ZM31.5817 31.7091C31.2754 32.0716 30.7157 32.0759 30.3801 31.7402L28.6624 30.0226C29.1811 29.8159 29.5919 29.405 29.7987 28.8862L31.5356 30.623C31.8329 30.9207 31.8483 31.3935 31.5817 31.7091Z" fill="#C8A98D"/>
<path d="M20.7048 4.9992C16.6142 4.9992 12.5396 6.57338 9.44682 9.66621C3.96615 15.1469 3.25428 23.7108 7.62031 29.9822L15.4609 22.1416C14.5145 21.8504 13.7209 21.3417 13.1817 20.7143C13.146 20.6907 13.1122 20.6632 13.0807 20.6317L11.0052 18.5562C10.7504 18.3016 10.7504 17.8886 11.0052 17.6339C11.2598 17.3793 11.6727 17.3793 11.9274 17.6339L13.8219 19.5283C14.6731 19.1137 15.7474 18.9336 16.8811 19.0804C17.3468 19.1407 17.7875 19.2532 18.1964 19.4059L19.1826 18.4197C19.0299 18.0108 18.9173 17.57 18.857 17.1043C18.7104 15.9707 18.8904 14.8964 19.305 14.0451L17.4106 12.1507C17.1559 11.8961 17.1559 11.4831 17.4106 11.2284C17.6652 10.9738 18.0781 10.9738 18.3329 11.2284L20.4084 13.304C20.4398 13.3354 20.4672 13.3693 20.491 13.4049C21.1184 13.9441 21.627 14.7378 21.9182 15.6842L29.7628 7.83953C27.0304 5.93748 23.8629 4.9992 20.7048 4.9992ZM18.0023 18.2258C16.7563 18.3765 15.2637 17.8244 14.0919 16.6526C12.9201 15.4807 12.368 13.9881 12.5187 12.7422C13.7647 12.5914 15.2573 13.1436 16.4291 14.3154C17.6009 15.4872 18.153 16.9799 18.0023 18.2258Z" fill="#C8A98D"/>
<path d="M35.8586 6.3636C31.7627 2.26778 26.3825 0.219788 21.0024 0.219788C15.6222 0.219788 10.242 2.26778 6.14617 6.3636C-2.04547 14.5552 -2.04547 27.8843 6.14617 36.0761C14.3381 44.2679 27.667 44.2677 35.8586 36.0761C44.0503 27.8843 44.0503 14.5553 35.8586 6.3636ZM7.52167 32.2788C7.50461 32.2787 7.4873 32.2783 7.47007 32.2773C7.21135 32.2625 6.97124 32.1381 6.80981 31.9353C1.20281 24.8847 1.78441 14.7582 8.16266 8.38009C14.5408 2.002 24.6673 1.42032 31.7179 7.02732C31.9206 7.18867 32.0452 7.42886 32.0599 7.68758C32.0746 7.94631 31.9782 8.19897 31.795 8.38239L8.1648 32.0125C7.99376 32.1834 7.76219 32.2788 7.52167 32.2788ZM33.8421 34.0593C30.3961 37.5055 25.8556 39.2596 21.2974 39.2596C17.4191 39.2596 13.5281 37.9899 10.2867 35.4123C10.084 35.2509 9.95948 35.0107 9.94471 34.752C9.93003 34.4933 10.0264 34.2406 10.2097 34.0572L33.8398 10.427C34.0232 10.2438 34.2758 10.1474 34.5346 10.1621C34.7934 10.1768 35.0335 10.3012 35.1949 10.504C40.8019 17.5547 40.2204 27.6811 33.8421 34.0593Z" fill="#C8A98D"/>
</g>
<defs>
<clipPath id="clip0">
<rect width="42" height="42" fill="white" transform="translate(0 0.219788)"/>
</clipPath>
</defs>
</svg>
