<svg width="218" height="43" viewBox="0 0 218 43" fill="none" xmlns="http://www.w3.org/2000/svg">
<path d="M22.1179 22.1807C19.7001 24.5965 16.5213 25.8263 12.626 25.8263C8.73075 25.8263 5.68617 24.6843 3.40274 22.4004C1.11932 20.1164 0 17.0418 0 13.1328C0 9.2676 1.11932 6.19305 3.40274 3.90909C5.68617 1.58121 8.68596 0.43924 12.4917 0.43924C15.4915 0.43924 17.954 1.09807 19.8792 2.41574L21.6701 1.49337L22.0283 1.84475V6.98365H21.3568C20.7747 4.69969 19.4315 3.03065 17.8197 2.3279C16.2078 1.58122 14.8646 1.31768 13.4767 1.31768C8.10391 1.31768 4.9698 5.22676 4.9698 12.9131C4.9698 20.1603 8.01437 24.4647 14.3721 24.4647C17.4615 24.4647 19.8792 23.5423 21.7149 21.6976L22.1179 22.1807Z" fill="#5F5839"/>
<path d="M43.5188 24.3329L45.7126 24.8161V25.2992L39.4892 25.7384L38.9967 25.2553L39.0862 23.2788L38.9967 23.1909C37.2058 24.9917 35.0119 25.8702 32.415 25.8702C28.7437 25.8702 26.6841 23.6302 26.6841 20.336V9.17975L24.4902 8.69661V8.21346L30.7137 7.59855L31.2062 8.08169V19.6332C31.2062 22.7956 32.3255 24.4208 34.5642 24.4208C36.2655 24.4208 37.743 23.7619 38.9519 22.3564V9.13583L36.758 8.65268V8.16954L42.9815 7.55463L43.474 8.03777V24.3329H43.5188Z" fill="#5F5839"/>
<path d="M47.6836 32.7221V32.2828L49.8775 31.624V9.09191L47.6836 8.60877V8.12562L53.907 7.51071L54.3995 7.99385L54.31 9.97035L54.3995 10.0582C55.9666 8.38915 57.9366 7.55463 60.22 7.55463C64.6973 7.55463 67.1151 10.9366 67.1151 16.2073C67.1151 22.2246 63.8914 25.6945 58.3396 25.6945C56.7725 25.6945 55.4741 25.431 54.3995 24.86V31.5362L57.668 32.195V32.6342H47.6836V32.7221ZM54.3995 24.3768C55.4741 24.9478 56.5486 25.2114 57.5337 25.2114C60.7573 25.2114 62.5482 22.2686 62.5482 16.8661C62.5482 14.5383 62.1453 12.6496 61.2946 11.2002C60.4887 9.75074 59.4141 9.04799 58.0261 9.04799C56.5934 9.04799 55.4293 9.70682 54.3995 10.9366V24.3768Z" fill="#5F5839"/>
<path d="M82.6063 8.96013C81.7109 8.43306 80.8154 8.16953 79.9647 8.16953C76.9201 8.16953 75.1292 11.1562 75.1292 15.9877C75.1292 21.3901 77.2335 24.5525 81.5765 24.5525C83.5913 24.5525 85.2927 23.8498 86.815 22.4003L87.2179 22.8396C85.2031 24.8161 82.7406 25.7384 79.7856 25.7384C73.786 25.7384 70.5176 22.2686 70.5176 16.6904C70.5176 11.0245 73.8756 7.59854 79.9199 7.59854C81.9795 7.59854 83.8152 7.99384 85.3823 8.82836C86.9493 9.66289 87.7552 10.8049 87.7552 12.2982C87.7552 13.8794 86.7254 14.8457 85.2031 14.8457C83.6361 14.8457 82.6063 13.8355 82.6063 12.1225V8.96013Z" fill="#5F5839"/>
<path d="M103.158 23.2788C101.367 24.9478 99.2176 25.8263 96.7104 25.8263C93.4867 25.8263 91.8301 24.289 91.8301 21.6976C91.8301 20.1164 92.5912 18.9744 93.6658 18.2277C94.2031 17.8324 94.9642 17.525 95.9492 17.2175C96.9342 16.9101 97.9192 16.6465 98.9042 16.4708C99.8892 16.2951 101.143 16.0316 102.71 15.812C102.934 15.7681 103.068 15.7681 103.202 15.7242V12.2982C103.202 9.83857 101.949 8.25737 99.7549 8.25737C98.949 8.25737 98.1431 8.47698 97.3819 8.91621V11.8151C97.3819 13.4841 96.3521 14.5383 94.8746 14.5383C93.4419 14.5383 92.4121 13.572 92.4121 12.0347C92.4121 10.6292 93.1285 9.57504 94.606 8.82836C96.0835 8.03776 97.7849 7.64246 99.7997 7.64246C104.859 7.64246 107.725 9.83857 107.725 13.0888V23.9376C107.725 24.4647 107.993 24.7721 108.575 24.7721C109.068 24.7721 109.471 24.6404 109.739 24.3768L110.008 24.6404C109.336 25.2992 108.083 25.6506 106.247 25.6506C104.501 25.6506 103.471 25.0796 103.292 23.3666L103.158 23.2788ZM103.158 16.2512C100.561 16.6465 98.949 17.0418 98.2326 17.3932C97.0685 18.1838 96.4417 19.4136 96.3969 21.1705C96.3969 23.1909 97.3819 24.3329 99.0833 24.3329C100.561 24.3329 101.949 23.6741 103.158 22.4443V16.2512Z" fill="#5F5839"/>
<path d="M110.992 8.56484V8.21346C113.544 7.59855 115.604 6.06128 117.216 3.55771L117.708 4.08477V7.77424H123.529V8.56484H117.708V20.8631C117.708 23.3227 118.693 24.5086 120.618 24.5086C121.738 24.5086 122.678 24.1133 123.529 23.2788L123.932 23.6741C122.588 25.0796 120.798 25.7384 118.648 25.7384C115.111 25.7384 113.186 23.7619 113.186 20.8191V8.52091H110.992V8.56484Z" fill="#5F5839"/>
<path d="M143.05 16.6904H130.872C130.916 21.9172 133.155 24.5086 137.632 24.5086C139.692 24.5086 141.438 23.8058 142.871 22.4003L143.274 22.8396C141.259 24.8161 138.752 25.7384 135.752 25.7384C132.707 25.7384 130.334 24.9039 128.722 23.3227C127.111 21.6976 126.305 19.5454 126.305 16.8661C126.305 14.0551 127.155 11.8151 128.902 10.146C130.603 8.47699 132.842 7.59854 135.528 7.59854C137.946 7.59854 139.916 8.25737 141.483 9.57504C143.05 10.8927 143.856 12.6057 143.856 14.7139C143.856 15.241 143.766 15.7241 143.677 16.1194L143.05 16.6904ZM130.827 16.1634L139.334 15.5485C139.334 10.6292 138.08 8.16953 135.617 8.16953C133.065 8.16953 131.006 10.8927 130.827 16.1634Z" fill="#5F5839"/>
<path d="M148.825 24.5086V9.09191L146.631 8.60877V8.12562L152.854 7.51071L153.347 7.99385L153.257 10.8927L153.347 10.9806C153.436 10.8049 153.526 10.5413 154.108 9.79467C154.914 8.82838 156.302 7.59855 158.406 7.59855C160.824 7.59855 162.839 9.13583 162.839 11.5955C162.839 13.3524 161.809 14.2747 160.331 14.2747C158.72 14.2747 157.735 13.2206 157.735 11.5516V8.69661C157.645 8.60877 157.466 8.60877 157.242 8.60877C156.481 8.60877 155.809 8.91622 155.138 9.53113C154.511 10.146 154.063 10.761 153.795 11.3319L153.347 12.2543V24.4647L156.615 25.1235V25.5627H146.631V25.1235L148.825 24.5086Z" fill="#5F5839"/>
<path d="M165.525 25.6067V25.1674L167.719 24.5086V9.0919L165.525 8.60876V8.12561L171.749 7.5107L172.241 7.99384V24.4208L174.435 25.0796V25.5188H165.525V25.6067ZM169.734 5.66596C167.137 5.88558 165.928 2.3718 167.63 0.83452C168.167 0.307453 168.883 0 169.734 0C171.435 0 172.6 1.22982 172.6 2.81102C172.6 4.48006 171.391 5.66596 169.734 5.66596Z" fill="#5F5839"/>
<path d="M183.122 24.5086L184.958 25.1674V25.6067H176.406V25.1674L178.6 24.5086V9.09191L176.406 8.60877V8.12562L182.63 7.51071L183.122 7.99385L183.033 10.146L183.122 10.2339C184.913 8.56484 187.6 7.55463 190.062 7.55463C193.733 7.55463 195.614 10.0143 195.614 13.7477V24.3768L197.808 25.0357V25.4749H189.256V25.0357L191.092 24.3768V14.3626C191.092 10.761 189.973 8.96014 187.689 8.96014C186.122 8.96014 184.331 9.79467 183.212 11.0245V24.5086H183.122Z" fill="#5F5839"/>
<path d="M215.402 8.96012H213.97C215.761 10.0143 216.611 11.5076 216.611 13.4402C216.611 15.1971 215.895 16.5587 214.417 17.5689C212.985 18.623 211.059 19.1062 208.776 19.1062C206.851 19.1062 205.239 18.7548 203.94 18.052C203.314 18.7987 203 19.5454 203 20.2921C203 21.5219 203.851 22.1368 205.642 22.1368H211.686C215.895 22.1368 217.999 23.6741 217.999 26.7486C217.999 30.7895 214.552 32.766 207.701 32.766C202.642 32.766 200.135 31.7558 200.135 29.6475C200.135 28.242 201.254 26.9682 203.538 25.9141C201.791 25.431 200.941 24.2011 200.941 22.3125C200.941 20.5995 201.702 19.4575 203.448 17.7885C201.791 16.7783 200.941 15.3288 200.941 13.3963C200.941 11.6394 201.657 10.2778 203.09 9.22366C204.523 8.21345 206.448 7.64246 208.731 7.64246C209.045 7.64246 209.492 7.68638 210.074 7.73031H217.82V8.16953L215.402 8.96012ZM205.866 26.2216C205.418 26.2216 205.105 26.2216 204.926 26.1776C204.12 27.1 203.717 28.0224 203.717 28.9008C203.717 31.2726 205.418 32.195 208.642 32.195C212.716 32.195 215.358 30.7895 215.358 28.5494C215.358 27.1439 214.373 26.2216 212.223 26.2216H205.866ZM208.776 18.5791C209.851 18.5791 210.701 18.1399 211.373 17.2614C212.044 16.383 212.358 15.1092 212.358 13.3963C212.358 11.7272 212.044 10.4535 211.373 9.53111C210.701 8.65267 209.851 8.21345 208.776 8.21345C206.627 8.21345 205.239 10.0143 205.239 13.3963C205.284 16.8222 206.627 18.5791 208.776 18.5791Z" fill="#5F5839"/>
<path d="M73.1016 40.7567H72.666V35.9474H76.4806V40.7567H76.045V36.3633H73.1016V40.7567Z" fill="#5F5839"/>
<path d="M82.1598 40.8452C81.4236 40.8452 80.8868 40.5679 80.5495 40.0134H80.5187L80.5319 40.385C80.5437 40.6033 80.5495 40.8422 80.5495 41.1018V42.9335H80.1139V35.9474H80.4835L80.5671 36.6332H80.5935C80.922 36.114 81.4471 35.8545 82.1686 35.8545C82.8139 35.8545 83.3052 36.0683 83.6426 36.496C83.9828 36.9207 84.1529 37.5402 84.1529 38.3542C84.1529 39.1447 83.974 39.7582 83.6162 40.1948C83.2612 40.6284 82.7758 40.8452 82.1598 40.8452ZM82.151 40.4558C82.6409 40.4558 83.0193 40.273 83.2862 39.9072C83.556 39.5415 83.691 39.0297 83.691 38.3719C83.691 36.9591 83.1835 36.2527 82.1686 36.2527C81.6113 36.2527 81.2022 36.4075 80.9411 36.7172C80.68 37.024 80.5495 37.5254 80.5495 38.2215V38.3631C80.5495 39.1152 80.6742 39.6521 80.9235 39.9736C81.1758 40.2951 81.5849 40.4558 82.151 40.4558Z" fill="#5F5839"/>
<path d="M89.4406 40.8452C88.7454 40.8452 88.2028 40.6299 87.8127 40.1992C87.4255 39.7686 87.2319 39.1654 87.2319 38.3896C87.2319 37.6227 87.4196 37.0092 87.7951 36.5491C88.1705 36.086 88.6765 35.8545 89.313 35.8545C89.8762 35.8545 90.3205 36.0521 90.6461 36.4473C90.9717 36.8426 91.1345 37.3794 91.1345 38.0578V38.4118H87.6895C87.6953 39.0725 87.8479 39.5768 88.147 39.9249C88.4492 40.273 88.8803 40.447 89.4406 40.447C89.7134 40.447 89.9524 40.4278 90.1577 40.3895C90.366 40.3511 90.6285 40.2685 90.9453 40.1417V40.5399C90.6754 40.6579 90.4261 40.7375 90.1973 40.7788C89.9686 40.8231 89.7163 40.8452 89.4406 40.8452ZM89.313 36.2438C88.8525 36.2438 88.4829 36.3972 88.2042 36.7039C87.9256 37.0078 87.7628 37.4472 87.7159 38.0224H90.6725C90.6725 37.4649 90.5523 37.0299 90.3117 36.7172C90.0712 36.4016 89.7383 36.2438 89.313 36.2438Z" fill="#5F5839"/>
<path d="M96.7081 40.2877L96.9809 39.5134L98.358 35.9474H98.9608V40.7567H98.5472V36.4783C98.4827 36.6641 98.4138 36.8544 98.3404 37.049C98.27 37.2437 97.7919 38.4796 96.9061 40.7567H96.5189L95.1946 37.3765C95.1389 37.2408 95.0861 37.0977 95.0362 36.9473C94.9893 36.7969 94.9365 36.6346 94.8778 36.4606V40.7567H94.4818V35.9474H95.0582L96.4397 39.4869C96.5483 39.773 96.6377 40.0399 96.7081 40.2877Z" fill="#5F5839"/>
<path d="M103.003 35.9474V39.4249L102.977 40.3319L105.815 35.9474H106.396V40.7567H105.978V37.3012L105.995 36.3721L103.157 40.7567H102.59V35.9474H103.003Z" fill="#5F5839"/>
<path d="M109.228 35.9474H109.677L110.689 38.6463C110.997 39.4751 111.192 40.034 111.274 40.3231H111.3C111.424 39.9426 111.625 39.3748 111.903 38.6197L112.915 35.9474H113.364L111.221 41.5354C111.048 41.9896 110.903 42.2964 110.786 42.4557C110.668 42.6149 110.53 42.7344 110.372 42.814C110.217 42.8937 110.027 42.9335 109.804 42.9335C109.637 42.9335 109.451 42.9025 109.246 42.8406V42.4601C109.416 42.5073 109.599 42.5309 109.796 42.5309C109.945 42.5309 110.077 42.4955 110.192 42.4247C110.306 42.3539 110.409 42.2433 110.5 42.0929C110.593 41.9454 110.701 41.7094 110.821 41.385C110.944 41.0634 111.023 40.854 111.058 40.7567L109.228 35.9474Z" fill="#5F5839"/>
<path d="M118.418 40.2877L118.691 39.5134L120.068 35.9474H120.671V40.7567H120.257V36.4783C120.193 36.6641 120.124 36.8544 120.051 37.049C119.98 37.2437 119.502 38.4796 118.616 40.7567H118.229L116.905 37.3765C116.849 37.2408 116.796 37.0977 116.746 36.9473C116.7 36.7969 116.647 36.6346 116.588 36.4606V40.7567H116.192V35.9474H116.768L118.15 39.4869C118.258 39.773 118.348 40.0399 118.418 40.2877Z" fill="#5F5839"/>
<path d="M131.264 35.9474H131.805L129.662 38.2746L131.959 40.7567H131.374L129.112 38.3188V40.7567H128.668V35.9474H129.112V38.2835L131.264 35.9474Z" fill="#5F5839"/>
<path d="M136.763 40.8452C136.068 40.8452 135.525 40.6299 135.135 40.1992C134.748 39.7686 134.554 39.1654 134.554 38.3896C134.554 37.6227 134.742 37.0092 135.117 36.5491C135.493 36.086 135.999 35.8545 136.635 35.8545C137.198 35.8545 137.643 36.0521 137.968 36.4473C138.294 36.8426 138.457 37.3794 138.457 38.0578V38.4118H135.012C135.018 39.0725 135.17 39.5768 135.469 39.9249C135.771 40.273 136.203 40.447 136.763 40.447C137.036 40.447 137.275 40.4278 137.48 40.3895C137.688 40.3511 137.951 40.2685 138.267 40.1417V40.5399C137.998 40.6579 137.748 40.7375 137.52 40.7788C137.291 40.8231 137.038 40.8452 136.763 40.8452ZM136.635 36.2438C136.175 36.2438 135.805 36.3972 135.526 36.7039C135.248 37.0078 135.085 37.4472 135.038 38.0224H137.995C137.995 37.4649 137.874 37.0299 137.634 36.7172C137.393 36.4016 137.06 36.2438 136.635 36.2438Z" fill="#5F5839"/>
<path d="M142.218 35.9474V39.4249L142.191 40.3319L145.029 35.9474H145.61V40.7567H145.192V37.3012L145.209 36.3721L142.372 40.7567H141.804V35.9474H142.218ZM143.709 35.266C143.272 35.266 142.939 35.1687 142.71 34.974C142.482 34.7764 142.348 34.4593 142.31 34.0228H142.697C142.741 34.3472 142.841 34.5773 142.996 34.713C143.152 34.8457 143.392 34.9121 143.718 34.9121C144.041 34.9121 144.28 34.8428 144.435 34.7041C144.593 34.5655 144.69 34.3384 144.725 34.0228H145.113C145.051 34.8516 144.583 35.266 143.709 35.266Z" fill="#5F5839"/>
<path d="M152.279 36.3279H150.686V40.7567H150.255V36.3279H148.623V35.9474H152.279V36.3279Z" fill="#5F5839"/>
<path d="M157.223 40.8452C156.528 40.8452 155.986 40.6299 155.596 40.1992C155.208 39.7686 155.015 39.1654 155.015 38.3896C155.015 37.6227 155.202 37.0092 155.578 36.5491C155.953 36.086 156.459 35.8545 157.096 35.8545C157.659 35.8545 158.103 36.0521 158.429 36.4473C158.755 36.8426 158.917 37.3794 158.917 38.0578V38.4118H155.472C155.478 39.0725 155.631 39.5768 155.93 39.9249C156.232 40.273 156.663 40.447 157.223 40.447C157.496 40.447 157.735 40.4278 157.941 40.3895C158.149 40.3511 158.411 40.2685 158.728 40.1417V40.5399C158.458 40.6579 158.209 40.7375 157.98 40.7788C157.751 40.8231 157.499 40.8452 157.223 40.8452ZM157.096 36.2438C156.635 36.2438 156.266 36.3972 155.987 36.7039C155.708 37.0078 155.546 37.4472 155.499 38.0224H158.455C158.455 37.4649 158.335 37.0299 158.095 36.7172C157.854 36.4016 157.521 36.2438 157.096 36.2438Z" fill="#5F5839"/>
<path d="M164.311 40.8452C163.574 40.8452 163.038 40.5679 162.7 40.0134H162.669L162.683 40.385C162.694 40.6033 162.7 40.8422 162.7 41.1018V42.9335H162.265V35.9474H162.634L162.718 36.6332H162.744C163.073 36.114 163.598 35.8545 164.319 35.8545C164.965 35.8545 165.456 36.0683 165.793 36.496C166.134 36.9207 166.304 37.5402 166.304 38.3542C166.304 39.1447 166.125 39.7582 165.767 40.1948C165.412 40.6284 164.927 40.8452 164.311 40.8452ZM164.302 40.4558C164.792 40.4558 165.17 40.273 165.437 39.9072C165.707 39.5415 165.842 39.0297 165.842 38.3719C165.842 36.9591 165.334 36.2527 164.319 36.2527C163.762 36.2527 163.353 36.4075 163.092 36.7172C162.831 37.024 162.7 37.5254 162.7 38.2215V38.3631C162.7 39.1152 162.825 39.6521 163.074 39.9736C163.327 40.2951 163.736 40.4558 164.302 40.4558Z" fill="#5F5839"/>
<path d="M170.073 35.9474V39.4249L170.047 40.3319L172.885 35.9474H173.466V40.7567H173.048V37.3012L173.065 36.3721L170.227 40.7567H169.66V35.9474H170.073Z" fill="#5F5839"/>
<path d="M177.535 35.9474V38.0578H180.57V35.9474H181.002V40.7567H180.57V38.4383H177.535V40.7567H177.099V35.9474H177.535Z" fill="#5F5839"/>
<path d="M187.446 36.3279H185.07V40.7567H184.635V35.9474H187.446V36.3279Z" fill="#5F5839"/>
</svg>
