<svg width="14" height="12" viewBox="0 0 14 12" fill="none" xmlns="http://www.w3.org/2000/svg">
<path d="M11.8258 1.07629C12.0547 0.858359 12.3594 0.737878 12.6754 0.740269C12.9915 0.742661 13.2942 0.867738 13.5198 1.08911C13.7454 1.31048 13.8762 1.61082 13.8845 1.92677C13.8929 2.24272 13.7782 2.54956 13.5646 2.78254L7.08084 10.8913C6.96935 11.0114 6.83478 11.1077 6.6852 11.1746C6.53561 11.2415 6.37408 11.2776 6.21024 11.2806C6.04641 11.2836 5.88365 11.2536 5.73169 11.1923C5.57973 11.131 5.44169 11.0397 5.32583 10.9238L1.02608 6.62404C0.906344 6.51246 0.810303 6.37791 0.743691 6.22841C0.677079 6.07892 0.641261 5.91753 0.638373 5.75389C0.635486 5.59025 0.665589 5.4277 0.726886 5.27594C0.788182 5.12419 0.879417 4.98633 0.995148 4.8706C1.11088 4.75487 1.24873 4.66364 1.40049 4.60234C1.55224 4.54104 1.71479 4.51094 1.87843 4.51383C2.04208 4.51672 2.20346 4.55253 2.35296 4.61915C2.50246 4.68576 2.63701 4.7818 2.74858 4.90154L6.15134 8.30266L11.795 1.11204C11.8051 1.09953 11.816 1.08759 11.8275 1.07629H11.8258Z" fill="#C8A98D"/>
</svg>
