<svg width="33" height="33" viewBox="0 0 33 33" fill="none" xmlns="http://www.w3.org/2000/svg">
<path d="M26.125 12.1853C26.125 6.98265 21.8072 2.75 16.5 2.75C11.1928 2.75 6.875 6.98265 6.875 12.1853C6.875 16.7807 10.2439 20.6186 14.6877 21.452L14.1582 21.9711C13.8372 22.2857 13.8372 22.7958 14.1582 23.1105C14.4791 23.4251 14.9995 23.4251 15.3205 23.1105L15.6781 22.7599V24.2666C15.6781 25.6776 16.8485 26.7982 18.2606 26.7982C18.7782 26.7982 19.1993 27.211 19.1993 27.7184C19.1993 28.2316 18.7742 28.6387 18.2606 28.6387H14.7393C14.2854 28.6387 13.9174 28.9994 13.9174 29.4443C13.9174 29.8893 14.2854 30.25 14.7393 30.25H18.2606C19.6759 30.25 20.843 29.1273 20.843 27.7184C20.843 26.3225 19.6845 25.1869 18.2606 25.1869C17.7466 25.1869 17.3218 24.7784 17.3218 24.2666V22.7598L17.6794 23.1104C18.0004 23.4251 18.5208 23.425 18.8417 23.1104C19.1627 22.7958 19.1627 22.2857 18.8417 21.971L18.3122 21.452C22.7561 20.6186 26.125 16.7807 26.125 12.1853ZM16.5 20.0091C12.0991 20.0091 8.51874 16.4993 8.51874 12.1852C8.51874 7.87108 12.0991 4.36133 16.5 4.36133C20.9009 4.36133 24.4813 7.87113 24.4813 12.1853C24.4813 16.4994 20.9009 20.0091 16.5 20.0091Z" fill="#C8A98D" stroke="#C8A98D"/>
<path d="M17.2219 8.25C14.5423 8.25 12.375 9.33471 12.375 10.6735V10.6738C12.375 10.854 12.6672 11 13.0277 11C13.3882 11 13.6805 10.8537 13.6805 10.6735C13.6805 9.69412 15.2663 8.90273 17.2226 8.90273C17.5831 8.90273 17.875 8.75661 17.875 8.57637C17.875 8.39612 17.5824 8.25 17.2219 8.25Z" fill="#C8A98D" stroke="#C8A98D"/>
</svg>
