<svg width="33" height="33" viewBox="0 0 33 33" fill="none" xmlns="http://www.w3.org/2000/svg">
<path d="M26.3575 4.12499L24.3868 4.16083C24.6267 3.47242 24.7497 2.74875 24.7507 2.01976V1.54687C24.7507 1.45354 24.7254 1.36196 24.6774 1.28189C24.6295 1.20183 24.5607 1.13629 24.4784 1.09225C24.3961 1.04822 24.3034 1.02734 24.2102 1.03185C24.117 1.03636 24.0267 1.06609 23.9491 1.11787C23.1662 1.64001 22.5061 2.32588 22.0142 3.12809L20.4915 1.2246C20.4456 1.16817 20.3883 1.12202 20.3234 1.08912C20.2585 1.05623 20.1874 1.03734 20.1148 1.03366C20.0421 1.02998 19.9695 1.04161 19.9016 1.06779C19.8337 1.09396 19.7721 1.1341 19.7207 1.18561C19.3497 1.55978 19.1252 2.05458 19.0878 2.5802C19.0504 3.10581 19.2028 3.6274 19.5171 4.05029L19.8568 4.50307C20.0069 4.70414 20.0883 4.94823 20.0888 5.19917V6.96093C20.089 6.98249 20.0905 7.00401 20.0933 7.02538C20.0713 7.35349 20.1761 7.67753 20.3862 7.93056C20.4506 8.00815 20.5239 8.0779 20.6047 8.13836C20.5058 8.50183 20.3935 8.86172 20.2676 9.21801C20.2237 9.14784 20.1759 9.08022 20.1243 9.0155L18.429 6.89648C18.383 6.84007 18.3258 6.79394 18.2609 6.76108C18.1959 6.72821 18.1249 6.70935 18.0522 6.7057C17.9796 6.70206 17.9069 6.71371 17.8391 6.73991C17.7712 6.76612 17.7096 6.80628 17.6582 6.8578C17.2873 7.23198 17.0627 7.72675 17.0254 8.25233C16.988 8.77792 17.1403 9.29948 17.4546 9.72236L17.7943 10.1751C17.9444 10.3762 18.0258 10.6203 18.0263 10.8712V12.6328C18.0264 12.697 18.0385 12.7607 18.0621 12.8204C18.0803 12.9415 18.1157 13.0594 18.167 13.1705C18.1685 13.1738 18.1704 13.177 18.1719 13.1801C18.0139 13.3952 17.8491 13.6079 17.6797 13.8148L17.5096 13.2561C17.4687 13.1266 17.3783 13.0185 17.2582 12.9553C17.138 12.892 16.9978 12.8787 16.8678 12.9182C16.7379 12.9578 16.6289 13.047 16.5643 13.1664C16.4998 13.2859 16.485 13.426 16.5231 13.5564L16.9093 14.8253C16.667 15.1687 16.438 15.5209 16.2224 15.882C16.1195 15.6091 15.9632 15.3595 15.7627 15.1477L13.8941 13.1797C13.8444 13.1274 13.7843 13.0861 13.7177 13.0585C13.651 13.0308 13.5793 13.0175 13.5072 13.0193C13.4351 13.0211 13.3642 13.0381 13.299 13.069C13.2338 13.1 13.1759 13.1443 13.1289 13.199C13.128 13.2003 13.1237 13.2051 13.1225 13.2063C12.7845 13.6105 12.6027 14.1225 12.61 14.6493C12.6172 15.1761 12.8132 15.6829 13.1622 16.0776L13.5392 16.5C13.7058 16.6876 13.8075 16.924 13.8292 17.174L13.8298 17.1804L13.9974 18.8901C13.9978 18.8947 13.9987 18.8991 13.9993 18.9036C14.0118 19.0968 14.0681 19.2847 14.1639 19.453C14.2534 19.6103 14.3753 19.7468 14.5214 19.8536C14.4638 20.0604 14.4104 20.2684 14.3611 20.4773L14.1704 20.273C14.0771 20.173 13.9479 20.1141 13.8112 20.1094C13.6745 20.1047 13.5415 20.1544 13.4415 20.2478C13.3415 20.3411 13.2827 20.4703 13.278 20.607C13.2732 20.7437 13.323 20.8766 13.4163 20.9767L14.1169 21.7271C14.0768 21.9847 14.0429 22.243 14.0152 22.5021C13.7966 22.2776 13.5325 22.1023 13.2406 21.9882L10.7114 21.0046C10.6433 20.9788 10.5706 20.9676 10.498 20.9716C10.4254 20.9757 10.3544 20.995 10.2897 21.0282C10.2249 21.0615 10.1679 21.1079 10.1223 21.1646C10.0767 21.2213 10.0435 21.287 10.0249 21.3573C9.89148 21.867 9.94521 22.4077 10.1764 22.8812C10.4075 23.3547 10.8008 23.7296 11.2848 23.9379L11.8057 24.1594C12.0365 24.2581 12.2292 24.4286 12.3555 24.6455L13.2385 26.1698C13.2705 26.2247 13.3124 26.2732 13.3621 26.3128C13.4389 26.409 13.529 26.4938 13.6297 26.5646C13.7203 26.6279 13.8188 26.6793 13.9226 26.7174V28.1458L13.7716 27.9948C13.7237 27.9469 13.6669 27.9089 13.6043 27.883C13.5417 27.8571 13.4747 27.8437 13.407 27.8437C13.3393 27.8437 13.2722 27.8571 13.2097 27.883C13.1471 27.9089 13.0903 27.9469 13.0424 27.9948C12.9945 28.0426 12.9565 28.0995 12.9306 28.162C12.9047 28.2246 12.8913 28.2917 12.8913 28.3594C12.8913 28.4271 12.9047 28.4941 12.9306 28.5567C12.9565 28.6193 12.9945 28.6761 13.0424 28.724L13.9226 29.6042V31.4531C13.9226 31.5899 13.9769 31.721 14.0736 31.8177C14.1703 31.9144 14.3015 31.9687 14.4382 31.9687C14.575 31.9687 14.7061 31.9144 14.8028 31.8177C14.8995 31.721 14.9539 31.5899 14.9539 31.4531V29.6042L15.8341 28.724C15.882 28.6761 15.92 28.6193 15.9459 28.5567C15.9718 28.4941 15.9851 28.4271 15.9851 28.3594C15.9851 28.2917 15.9718 28.2246 15.9459 28.162C15.92 28.0995 15.882 28.0426 15.8341 27.9948C15.7862 27.9469 15.7294 27.9089 15.6668 27.883C15.6042 27.8571 15.5372 27.8437 15.4695 27.8437C15.4018 27.8437 15.3347 27.8571 15.2722 27.883C15.2096 27.9089 15.1528 27.9469 15.1049 27.9948L14.9539 28.1458V26.6588C15.1424 26.5636 15.3045 26.4232 15.4257 26.2502L16.4381 24.8085C16.5827 24.6034 16.7896 24.4504 17.0281 24.3722L17.5663 24.1968C18.0671 24.031 18.4918 23.691 18.7632 23.2386C19.0346 22.7863 19.1346 22.2515 19.0452 21.7317C19.0328 21.6601 19.0055 21.592 18.965 21.5318C18.9244 21.4715 18.8717 21.4205 18.8101 21.3821C18.7485 21.3437 18.6795 21.3187 18.6076 21.3088C18.5356 21.2989 18.4624 21.3042 18.3928 21.3246L15.7876 22.0845C15.5231 22.162 15.2755 22.2885 15.0579 22.4576C15.0764 22.2997 15.0973 22.1421 15.1206 21.9849L16.0989 21.6245C16.1625 21.6011 16.2208 21.5654 16.2705 21.5194C16.3203 21.4735 16.3605 21.4182 16.3888 21.3567C16.4172 21.2952 16.4332 21.2287 16.4359 21.1611C16.4386 21.0934 16.4279 21.0259 16.4045 20.9623C16.3811 20.8988 16.3454 20.8405 16.2994 20.7908C16.2535 20.741 16.1982 20.7008 16.1367 20.6724C16.0752 20.6441 16.0088 20.6281 15.9411 20.6254C15.8734 20.6227 15.8059 20.6334 15.7424 20.6568L15.3437 20.8037C15.3995 20.5613 15.4612 20.3202 15.5288 20.0805C15.6671 20.0538 15.8001 20.0046 15.9224 19.9347L17.4529 19.0621C17.6711 18.9382 17.9235 18.888 18.1725 18.9189L18.7342 18.9898C19.2581 19.0532 19.7874 18.9265 20.2258 18.6327C20.6642 18.3389 20.9827 17.8975 21.1232 17.3888C21.1422 17.3189 21.1464 17.2457 21.1353 17.1741C21.1241 17.1025 21.0981 17.034 21.0587 16.9732C21.0193 16.9123 20.9676 16.8604 20.9068 16.8209C20.8461 16.7814 20.7777 16.7551 20.7061 16.7438L18.0256 16.3207C17.7292 16.2745 17.4265 16.2894 17.1361 16.3645C17.3303 16.0409 17.5364 15.7248 17.7544 15.4163L19.0583 15.4684C19.0654 15.4684 19.0723 15.4689 19.0792 15.4689C19.214 15.4686 19.3433 15.4155 19.4394 15.321C19.5356 15.2265 19.5909 15.0982 19.5935 14.9634C19.5962 14.8286 19.546 14.6982 19.4536 14.6C19.3613 14.5018 19.2342 14.4437 19.0995 14.4381L18.5209 14.4149C18.6685 14.233 18.8132 14.047 18.9532 13.8586C19.2581 13.9552 19.5882 13.934 19.8783 13.7991L21.4772 13.0592C21.7051 12.9543 21.9608 12.9257 22.2062 12.9775L22.76 13.0956C23.2763 13.2031 23.814 13.1219 24.2755 12.8667C24.737 12.6114 25.0916 12.1992 25.275 11.7047C25.3003 11.6365 25.311 11.5638 25.3062 11.4913C25.3015 11.4188 25.2814 11.348 25.2474 11.2838C25.2134 11.2195 25.1662 11.1632 25.1089 11.1185C25.0516 11.0738 24.9855 11.0417 24.9149 11.0243L22.2797 10.3757C21.8114 10.2613 21.3185 10.3039 20.8768 10.497C20.9876 10.2358 21.0916 9.97153 21.1889 9.70418L22.2236 9.41969C22.2894 9.40224 22.3512 9.37192 22.4052 9.33047C22.4593 9.28903 22.5046 9.23729 22.5385 9.17824C22.5725 9.11919 22.5944 9.054 22.603 8.98643C22.6116 8.91887 22.6067 8.85027 22.5887 8.78459C22.5706 8.71892 22.5397 8.65747 22.4978 8.6038C22.4558 8.55013 22.4037 8.5053 22.3443 8.4719C22.285 8.4385 22.2196 8.41719 22.1519 8.4092C22.0843 8.40122 22.0157 8.40671 21.9502 8.42537L21.5658 8.53101C21.5805 8.47893 21.5952 8.42692 21.6093 8.37471C21.8272 8.33552 22.0312 8.24057 22.2014 8.09911L23.5569 6.97376C23.7503 6.81386 23.99 6.72054 24.2406 6.70763L24.806 6.67966C25.3328 6.65117 25.8318 6.43464 26.2124 6.06941C26.593 5.70419 26.83 5.21452 26.8802 4.68941C26.8871 4.61711 26.8786 4.54417 26.8553 4.47537C26.8321 4.40657 26.7945 4.34346 26.7452 4.29017C26.6959 4.23689 26.6358 4.19463 26.569 4.16616C26.5022 4.1377 26.4301 4.12367 26.3575 4.12499ZM13.4819 24.5322L13.2478 24.1282C13.0093 23.7185 12.6451 23.3966 12.2093 23.2101L11.6884 22.9887C11.5289 22.9202 11.3867 22.8169 11.2723 22.6863C11.158 22.5557 11.0743 22.4011 11.0276 22.2339L12.8667 22.9494C13.1121 23.0451 13.3177 23.2212 13.4501 23.4489L13.8084 24.0674L13.4819 24.5322ZM14.3089 15.8137L13.9321 15.3911C13.8169 15.2611 13.7322 15.107 13.6844 14.94C13.6365 14.773 13.6267 14.5974 13.6555 14.4261L15.0148 15.8578C15.1959 16.049 15.3069 16.296 15.3295 16.5584L15.39 17.2705L14.9023 17.5486L14.8567 17.0832C14.8149 16.6123 14.6228 16.1672 14.3089 15.8137ZM15.4518 23.5215C15.6034 23.3061 15.8236 23.1486 16.0763 23.0745L17.9712 22.5217C17.91 22.6842 17.8131 22.8309 17.6877 22.951C17.5624 23.0711 17.4117 23.1617 17.2468 23.216L16.7085 23.3915C16.2581 23.5392 15.8674 23.8282 15.5942 24.2156L14.5818 25.6573C14.5425 25.7133 14.4825 25.7513 14.4151 25.7631C14.3478 25.7748 14.2785 25.7594 14.2225 25.72C14.1666 25.6807 14.1285 25.6208 14.1168 25.5534C14.105 25.4861 14.1205 25.4168 14.1598 25.3608L15.4518 23.5215ZM17.685 17.325C17.7452 17.325 17.8053 17.3297 17.8648 17.339L19.8148 17.6469C19.6901 17.7678 19.5398 17.8592 19.3751 17.9145C19.2105 17.9698 19.0355 17.9874 18.8631 17.9662L18.3014 17.8953C17.831 17.837 17.3543 17.932 16.9421 18.166L15.4115 19.0388C15.352 19.0726 15.2816 19.0814 15.2157 19.0634C15.1498 19.0453 15.0937 19.0019 15.0598 18.9425C15.026 18.8831 15.0172 18.8127 15.0352 18.7468C15.0533 18.6809 15.0967 18.6248 15.156 18.5909L17.109 17.4774C17.2845 17.3775 17.483 17.325 17.685 17.325ZM22.6077 4.19441C22.8752 3.62725 23.2382 3.11029 23.6808 2.6661C23.6166 3.20068 23.4744 3.72297 23.2587 4.21632C23.0459 4.25874 22.8405 4.3323 22.6492 4.43462C22.6388 4.35544 22.6242 4.27688 22.6052 4.19931C22.6059 4.19763 22.6069 4.19589 22.6077 4.19441ZM18.6194 9.5562L18.2796 9.10335C18.1759 8.96416 18.1047 8.80349 18.0712 8.63314C18.0377 8.4628 18.0429 8.28712 18.0863 8.11902L19.319 9.6599C19.4833 9.86579 19.5729 10.1213 19.5732 10.3847V11.0993L19.0576 11.3378V10.8709C19.0566 10.397 18.9029 9.93597 18.6194 9.5562ZM21.2688 11.4511C21.5079 11.3407 21.7774 11.3148 22.0333 11.3774L23.9503 11.8492C23.8158 11.9592 23.6584 12.0376 23.4896 12.0787C23.3208 12.1198 23.145 12.1226 22.975 12.0869L22.4213 11.9688C21.9575 11.8709 21.4745 11.9252 21.044 12.1235L19.4451 12.8633C19.3831 12.892 19.3122 12.8949 19.248 12.8714C19.1838 12.8478 19.1316 12.7997 19.1029 12.7377C19.0887 12.7069 19.0806 12.6737 19.0792 12.6399C19.0779 12.606 19.0832 12.5723 19.0948 12.5405C19.1065 12.5087 19.1243 12.4795 19.1473 12.4546C19.1702 12.4297 19.1978 12.4096 19.2286 12.3954L21.2688 11.4511ZM20.6819 3.88432L20.3421 3.43148C20.2384 3.29229 20.1672 3.13161 20.1337 2.96126C20.1002 2.79092 20.1054 2.61524 20.1488 2.44715L21.3815 3.98803C21.5458 4.19392 21.6354 4.44942 21.6357 4.7128V5.21779L21.1201 5.64589V5.19923C21.1191 4.72523 20.9654 4.26415 20.6819 3.88432ZM24.7553 5.64957L24.1899 5.6776C23.7165 5.70195 23.2636 5.87825 22.8983 6.18034L21.5429 7.30569C21.5169 7.32763 21.4868 7.3442 21.4543 7.35445C21.4219 7.3647 21.3878 7.36843 21.3539 7.36542C21.32 7.36241 21.287 7.35272 21.2569 7.33691C21.2267 7.3211 21.2 7.29948 21.1783 7.2733C21.1566 7.24712 21.1402 7.2169 21.1302 7.18437C21.1202 7.15185 21.1168 7.11767 21.1201 7.0838C21.1233 7.04994 21.1333 7.01705 21.1493 6.98705C21.1654 6.95704 21.1872 6.93051 21.2135 6.90898L22.4792 5.85839L22.48 5.85769L22.9431 5.47316C23.146 5.30522 23.3999 5.211 23.6632 5.20587L25.6371 5.16991C25.5352 5.31064 25.4031 5.42677 25.2505 5.50977C25.0978 5.59278 24.9286 5.64054 24.755 5.64957H24.7553Z" fill="#C8A98D"/>
</svg>
