<svg width="42" height="42" viewBox="0 0 42 42" fill="none" xmlns="http://www.w3.org/2000/svg">
<path d="M40.5867 24.2557C41.2497 23.3199 42 22.2595 42 21C42 19.7405 41.2497 18.6801 40.5867 17.7443C40.1526 17.1299 39.7407 16.5497 39.5989 16.0165C39.4451 15.4448 39.5117 14.7126 39.5801 13.9375C39.6861 12.7618 39.7954 11.5458 39.1887 10.4973C38.5718 9.43261 37.4045 8.89424 36.374 8.42002C35.6767 8.09788 35.0187 7.79453 34.612 7.38864C34.2053 6.98193 33.9011 6.32305 33.5798 5.62496C33.1048 4.59547 32.5664 3.42735 31.5034 2.81211C30.4541 2.20631 29.2424 2.31476 28.0616 2.41902C27.2857 2.48907 26.5543 2.55314 25.9835 2.40196C25.4503 2.25922 24.8709 1.84825 24.2557 1.41332C23.3208 0.751078 22.2595 0 21 0C19.7405 0 18.6792 0.751078 17.7443 1.41332C17.1291 1.84825 16.5497 2.2593 16.0165 2.40196C15.444 2.55495 14.7126 2.48825 13.9384 2.41902C12.7643 2.31566 11.5458 2.20451 10.4982 2.81121C9.43351 3.42645 8.89514 4.59457 8.4201 5.62423C8.09878 6.32231 7.79461 6.98201 7.3879 7.3879C6.98119 7.79379 6.32321 8.09796 5.62423 8.4201C4.59539 8.89432 3.42817 9.43269 2.81121 10.4974C2.20451 11.545 2.31386 12.7618 2.41984 13.9376C2.48817 14.7126 2.55486 15.4449 2.40105 16.0157C2.25922 16.5497 1.84734 17.1299 1.41323 17.7443C0.750258 18.6801 0 19.7405 0 21C0 22.2595 0.750258 23.3199 1.41332 24.2557C1.84743 24.8701 2.2593 25.4503 2.40114 25.9835C2.55495 26.5552 2.48834 27.2874 2.41992 28.0625C2.31394 29.2382 2.20459 30.4542 2.81129 31.5027C3.42825 32.5674 4.59547 33.1058 5.62603 33.58C6.3233 33.9021 6.98127 34.2055 7.38798 34.6114C7.79469 35.0181 8.09895 35.6769 8.42018 36.375C8.8953 37.4047 9.43359 38.5728 10.4966 39.1881C11.5443 39.7939 12.7593 39.6854 13.9385 39.5811C14.7127 39.5111 15.4458 39.4461 16.0166 39.5982C16.5498 39.7409 17.1292 40.1519 17.7444 40.5868C18.6792 41.2489 19.7405 42 21 42C22.2595 42 23.3208 41.2489 24.2557 40.5867C24.8709 40.1518 25.4503 39.7407 25.9835 39.598C26.556 39.4451 27.2875 39.5117 28.0616 39.581C29.2373 39.687 30.4559 39.7963 31.5018 39.1888C32.5665 38.5736 33.1049 37.4054 33.5799 36.3758C33.9012 35.6777 34.2054 35.018 34.6121 34.6121C35.0188 34.2062 35.6768 33.902 36.3758 33.5799C37.4046 33.1057 38.5718 32.5673 39.1888 31.5026C39.7955 30.455 39.6861 29.2382 39.5802 28.0624C39.5118 27.2874 39.4451 26.5551 39.5989 25.9843C39.7407 25.4502 40.1526 24.87 40.5867 24.2557ZM14.875 31.5C10.5324 31.5 6.99997 27.9179 6.99997 23.5148C6.99997 19.0594 10.3257 10.5 14.875 10.5C19.4243 10.5 22.75 19.0595 22.75 23.5148C22.75 27.9179 19.2175 31.5 14.875 31.5ZM28.1247 29.75C27.7727 29.75 27.5163 29.6655 27.3112 29.597C27.0788 29.5201 26.8378 29.4407 26.2499 29.4407C25.662 29.4407 25.4211 29.5202 25.1886 29.597C24.8844 29.6988 24.3853 29.7756 23.8744 29.7081C23.5855 29.6688 23.3121 29.486 23.1839 29.2245C23.0541 28.9621 23.0421 28.6511 23.1874 28.3982C24.047 26.9079 24.4999 25.2194 24.4999 23.5148C24.4999 21.1469 23.7445 18.0272 22.5294 15.3723C22.3926 15.075 22.4337 14.7255 22.6354 14.4683C22.837 14.2094 23.1566 14.0863 23.4899 14.1487C24.0078 14.2487 24.5016 14.4085 24.9665 14.5605C25.1283 14.6136 25.2776 14.6577 25.4298 14.7038C25.5443 13.3863 25.8466 12.4441 26.1063 11.6724L26.2874 11.1195C26.4292 10.6589 26.9197 10.3923 27.3795 10.5385C27.8426 10.6786 28.1024 11.1682 27.9622 11.6306C27.9024 11.8246 27.8357 12.0236 27.764 12.2321C27.539 12.8999 27.2912 13.6352 27.182 14.6493C27.2843 14.6145 27.3792 14.5861 27.4854 14.5486C28.2151 14.2914 29.044 13.9999 29.9993 13.9999C33.178 13.9999 34.9998 16.2328 34.9998 20.125C35 24.0009 32.1135 29.75 28.1247 29.75Z" fill="#C8A98D"/>
</svg>
