<svg width="14" height="11" viewBox="0 0 14 11" fill="none" xmlns="http://www.w3.org/2000/svg">
<path d="M11.1877 0.336055C11.4166 0.118124 11.7212 -0.00235645 12.0372 3.49299e-05C12.3533 0.00242631 12.656 0.127503 12.8816 0.348872C13.1072 0.570242 13.238 0.870589 13.2463 1.18654C13.2547 1.50249 13.14 1.80932 12.9264 2.0423L6.44265 10.1511C6.33116 10.2711 6.1966 10.3675 6.04702 10.4344C5.89743 10.5013 5.73589 10.5373 5.57206 10.5404C5.40823 10.5434 5.24547 10.5134 5.09351 10.4521C4.94155 10.3908 4.80351 10.2994 4.68765 10.1836L0.387901 5.88381C0.26816 5.77223 0.172119 5.63768 0.105507 5.48818C0.0388952 5.33868 0.00307694 5.1773 0.00018967 5.01365C-0.0026976 4.85001 0.0274053 4.68746 0.088702 4.53571C0.149999 4.38395 0.241234 4.2461 0.356964 4.13037C0.472695 4.01464 0.610549 3.9234 0.762305 3.86211C0.914061 3.80081 1.07661 3.77071 1.24025 3.77359C1.40389 3.77648 1.56528 3.8123 1.71478 3.87891C1.86427 3.94552 1.99883 4.04156 2.1104 4.1613L5.51315 7.56243L11.1568 0.371805C11.1669 0.359294 11.1778 0.347358 11.1893 0.336055H11.1877Z" fill="#C8A98D"/>
</svg>
