<svg width="40" height="42" viewBox="0 0 40 42" fill="none" xmlns="http://www.w3.org/2000/svg">
<g clip-path="url(#clip0)">
<path fill-rule="evenodd" clip-rule="evenodd" d="M10.9105 41.9999H28.397C28.6471 41.9999 28.8908 41.9167 29.0927 41.7621L36.5638 36.0451C36.734 35.9149 36.8676 35.7393 36.9507 35.5367L39.905 28.3364C39.968 28.1829 40.0004 28.0176 40.0004 27.8506V10.9444C40.0004 10.6083 39.8692 10.2868 39.6371 10.0545L33.2724 3.68199C33.1618 3.57117 33.0315 3.48397 32.8889 3.42532L24.7661 0.0853335C24.6288 0.028896 24.4826 -6.10352e-05 24.3351 -6.10352e-05H10.8951C10.5916 -6.10352e-05 10.2998 0.122494 10.0805 0.342009L4.43365 5.99593C4.28959 6.14006 4.18302 6.32004 4.12365 6.51913L0.0538043 20.1685C0.000601146 20.3471 -0.0129926 20.5361 0.0139605 20.721L1.50787 30.9544C1.54123 31.1831 1.6356 31.3974 1.7799 31.5726L10.018 41.5721C10.2419 41.8438 10.5677 41.9999 10.9105 41.9999ZM9.60098 28.0973C12.0931 30.7035 15.3666 32.0066 18.6401 32.0066C21.9136 32.0066 25.1871 30.7035 27.6793 28.0973C29.6554 26.0307 30.7436 23.2831 30.7436 20.3606C30.7436 17.438 29.6553 14.6905 27.6793 12.624C26.0539 10.9241 23.893 9.98805 21.5943 9.98805C19.2957 9.98805 17.1347 10.9241 15.5094 12.624C14.1646 14.0303 13.424 15.9001 13.424 17.8891C13.424 19.878 14.1646 21.7478 15.5094 23.1542C17.8221 25.5728 21.5852 25.5728 23.8979 23.1542C25.8399 21.1231 25.8399 17.8186 23.8979 15.7877C23.1007 14.9541 22.0409 14.4949 20.9137 14.4949C19.7864 14.4949 18.7266 14.9541 17.9296 15.7877C17.4695 16.2688 17.4696 17.0488 17.9296 17.5298C18.3897 18.011 19.1354 18.0109 19.5956 17.5298C19.9476 17.1615 20.4158 16.9587 20.9138 16.9587C21.4118 16.9587 21.8799 17.1616 22.2321 17.5298C23.2554 18.6001 23.2554 20.3416 22.2321 21.412C20.8379 22.87 18.5696 22.8698 17.1754 21.412C16.2757 20.4709 15.7801 19.2198 15.7801 17.8891C15.7801 16.5582 16.2757 15.3071 17.1754 14.3661C18.3557 13.1317 19.9251 12.4519 21.5944 12.4519C23.2637 12.4519 24.833 13.1317 26.0134 14.3661C27.5445 15.9673 28.3877 18.0962 28.3877 20.3606C28.3877 22.625 27.5445 24.7539 26.0134 26.3551C21.9479 30.6068 15.3325 30.6069 11.2669 26.3551C10.8069 25.8741 10.061 25.8741 9.60098 26.3551C9.1409 26.8361 9.1409 27.6162 9.60098 28.0973Z" fill="#E2DAC9"/>
</g>
<defs>
<clipPath id="clip0">
<rect width="40" height="42" fill="white"/>
</clipPath>
</defs>
</svg>
