<svg width="33" height="33" viewBox="0 0 33 33" fill="none" xmlns="http://www.w3.org/2000/svg">
<path d="M28.8063 15.125H30.9375V17.875H28.8063C28.1875 23.6087 23.6087 28.1875 17.875 28.8063V30.9375H15.125V28.8063C9.39125 28.1875 4.8125 23.6087 4.19375 17.875H2.0625V15.125H4.19375C4.8125 9.39125 9.39125 4.8125 15.125 4.19375V2.0625H17.875V4.19375C23.6087 4.8125 28.1875 9.39125 28.8063 15.125ZM6.97125 15.125H8.9375V17.875H6.97125C7.26346 19.934 8.21655 21.8424 9.68708 23.3129C11.1576 24.7834 13.066 25.7365 15.125 26.0288V24.0625H17.875V26.0288C19.934 25.7365 21.8424 24.7834 23.3129 23.3129C24.7834 21.8424 25.7365 19.934 26.0288 17.875H24.0625V15.125H26.0288C25.7365 13.066 24.7834 11.1576 23.3129 9.68708C21.8424 8.21655 19.934 7.26346 17.875 6.97125V8.9375H15.125V6.97125C13.066 7.26346 11.1576 8.21655 9.68708 9.68708C8.21655 11.1576 7.26346 13.066 6.97125 15.125ZM22 22H11V20.625C11 18.7962 14.6713 17.875 16.5 17.875C18.3288 17.875 22 18.7962 22 20.625V22ZM16.5 11C17.2293 11 17.9288 11.2897 18.4445 11.8055C18.9603 12.3212 19.25 13.0207 19.25 13.75C19.25 14.4793 18.9603 15.1788 18.4445 15.6945C17.9288 16.2103 17.2293 16.5 16.5 16.5C15.7707 16.5 15.0712 16.2103 14.5555 15.6945C14.0397 15.1788 13.75 14.4793 13.75 13.75C13.75 13.0207 14.0397 12.3212 14.5555 11.8055C15.0712 11.2897 15.7707 11 16.5 11Z" fill="#C8A98D"/>
</svg>
