<svg width="33" height="33" viewBox="0 0 33 33" fill="none" xmlns="http://www.w3.org/2000/svg">
<path d="M30.2404 10.9312C30.2382 10.8319 30.2248 10.7332 30.2005 10.6369C30.1909 10.6025 30.1716 10.5695 30.1593 10.5352C30.1304 10.4568 30.1043 10.3798 30.063 10.3083C30.041 10.2712 30.0108 10.2409 29.9846 10.2052C29.9406 10.1433 29.898 10.08 29.8444 10.0264C29.8128 9.99616 29.7715 9.97141 29.7371 9.94253C29.6835 9.89853 29.634 9.85041 29.5721 9.81328C29.5666 9.80916 29.5598 9.80916 29.5529 9.80503L29.5419 9.79678L17.1958 2.93553C16.9917 2.82241 16.7623 2.76294 16.5291 2.7627C16.2958 2.76246 16.0663 2.82145 15.862 2.93416L3.45813 9.79541C3.454 9.79953 3.44988 9.80503 3.443 9.80916L3.42925 9.81466C3.38113 9.84216 3.34538 9.88203 3.3 9.91503C3.2505 9.95216 3.19825 9.98516 3.15425 10.0278C3.113 10.0704 3.08137 10.1199 3.04562 10.168C3.0085 10.2162 2.96725 10.2588 2.937 10.311C2.90125 10.3702 2.882 10.4375 2.85587 10.5022C2.83662 10.5475 2.81188 10.5902 2.7995 10.6397C2.77575 10.7342 2.76238 10.831 2.75962 10.9284C2.75825 10.9518 2.75 10.9724 2.75 10.9972V21.9999C2.75 22.499 3.02088 22.9597 3.45813 23.2017L15.8029 30.0588L15.8043 30.0602L15.807 30.0615L15.8345 30.0767C15.8936 30.1097 15.9583 30.1275 16.0201 30.1509C16.0641 30.1688 16.1068 30.1922 16.1535 30.2045C16.3817 30.2634 16.6211 30.2634 16.8493 30.2045C16.8946 30.1922 16.9373 30.1688 16.9826 30.1509C17.0445 30.1275 17.1091 30.111 17.1683 30.0767L17.1958 30.0615L17.1985 30.0602L17.1999 30.0588L29.5446 23.2017C29.9791 22.9597 30.25 22.499 30.25 21.9999V10.9972C30.25 10.9738 30.2418 10.9545 30.2404 10.9312ZM16.4615 16.3239L6.95475 11.0068L10.7525 8.90578L20.1493 14.2752L16.4615 16.3239ZM16.5275 5.71028L26.0439 10.9999L22.9584 12.7145L13.5671 7.34791L16.5275 5.71028ZM5.5 13.3443L15.125 18.7288V26.5388L5.5 21.19V13.3443ZM17.875 26.5388L17.8778 18.7302L22 16.4229V20.6249L24.75 19.2499V14.8843L27.5 13.3457V21.19L17.875 26.5388Z" fill="#C8A98D"/>
</svg>
