<svg width="42" height="42" viewBox="0 0 42 42" fill="none" xmlns="http://www.w3.org/2000/svg">
<path d="M13.9838 20.0942L26.1201 32.2305C26.176 31.1536 26.2243 28.777 25.816 25.9294C25.0801 20.7972 23.1874 16.5805 20.3424 13.7357C17.4974 10.8907 13.2809 8.99796 8.14867 8.26206C4.32995 7.71442 1.3564 7.98799 1.23171 8.00005C0.620825 8.05845 0.13725 8.54203 0.078844 9.15292C0.0668675 9.2776 -0.206707 12.2511 0.340852 16.0699C1.07675 21.2021 2.96946 25.4187 5.81447 28.2636C8.65939 31.1085 12.876 33.0013 18.0082 33.7372C19.8983 34.0082 21.5809 34.078 22.8138 34.078C23.4382 34.078 23.9471 34.0601 24.3092 34.0412L12.173 21.9051C11.6729 21.4051 11.6729 20.5943 12.173 20.0942C12.6729 19.5943 13.4837 19.5943 13.9838 20.0942Z" fill="#5F5839"/>
<path d="M40.986 16.8828C40.9276 16.2719 40.444 15.7884 39.8331 15.73C39.4909 15.6973 31.3964 14.9832 26.6828 19.6968C26.4993 19.8803 26.3242 20.0692 26.1567 20.2624C26.7086 21.9126 27.1244 23.6862 27.3939 25.5666C27.4802 26.1687 27.5474 26.7499 27.5997 27.3053L30.9455 23.9595C31.4454 23.4595 32.2562 23.4595 32.7564 23.9595C33.2565 24.4595 33.2564 25.2703 32.7564 25.7704L27.7621 30.7647C27.7609 32.07 27.6865 32.921 27.6703 33.0908C27.6416 33.3913 27.5777 33.6814 27.4838 33.9577C30.3283 33.6948 34.2548 32.7975 37.0191 30.0331C41.7327 25.3196 41.0187 17.2252 40.986 16.8828Z" fill="#5F5839"/>
</svg>
