<svg width="27" height="27" viewBox="0 0 27 27" fill="none" xmlns="http://www.w3.org/2000/svg">
<path d="M8.98958 12.9177L16.7915 20.7196C16.8274 20.0273 16.8585 18.4995 16.596 16.6689C16.1229 13.3696 14.9062 10.6589 13.0772 8.83008C11.2484 7.0012 8.5377 5.7844 5.23843 5.31132C2.78354 4.95927 0.871971 5.13514 0.791814 5.14289C0.399102 5.18043 0.0882323 5.4913 0.0506855 5.88402C0.0429862 5.96417 -0.132883 7.87569 0.219119 10.3306C0.692199 13.6299 1.90894 16.3406 3.73787 18.1694C5.56675 19.9983 8.27741 21.2151 11.5767 21.6882C12.7918 21.8624 13.8734 21.9073 14.666 21.9073C15.0674 21.9073 15.3945 21.8958 15.6273 21.8836L7.82547 14.0818C7.504 13.7604 7.504 13.2392 7.82547 12.9177C8.14689 12.5963 8.66812 12.5963 8.98958 12.9177Z" fill="#5F5839"/>
<path d="M26.3483 10.8533C26.3107 10.4605 25.9998 10.1497 25.6071 10.1121C25.3871 10.0911 20.1835 9.63203 17.1534 12.6622C17.0354 12.7802 16.9229 12.9017 16.8152 13.0258C17.1699 14.0866 17.4372 15.2269 17.6105 16.4357C17.666 16.8228 17.7092 17.1964 17.7428 17.5534L19.8936 15.4025C20.2151 15.0811 20.7363 15.0811 21.0578 15.4025C21.3793 15.7239 21.3793 16.2452 21.0578 16.5667L17.8472 19.7773C17.8464 20.6164 17.7986 21.1635 17.7882 21.2727C17.7697 21.4659 17.7286 21.6523 17.6683 21.83C19.4969 21.6609 22.0211 21.0841 23.7981 19.307C26.8283 16.2769 26.3693 11.0734 26.3483 10.8533Z" fill="#5F5839"/>
</svg>
